<svg width="102" height="60" viewBox="0 0 102 60" fill="none" xmlns="http://www.w3.org/2000/svg">
<path d="M18.5271 38.5847H7.59181L5.78236 43.6568H0L9.87327 17H16.285L26.1583 43.6568H20.3366L18.5271 38.5847ZM17.0324 34.3136L13.0595 23.178L9.08655 34.3136H17.0324Z" fill="white"/>
<path d="M62.8535 32.6356C62.8535 33.3983 62.8011 34.0847 62.6962 34.6949H46.7652C46.8963 36.2203 47.4471 37.4153 48.4173 38.2797C49.3876 39.1441 50.5808 39.5763 51.9969 39.5763C54.0423 39.5763 55.4978 38.7246 56.3632 37.0212H62.3029C61.6735 39.0551 60.4672 40.7331 58.684 42.0551C56.9007 43.3517 54.711 44 52.1149 44C50.017 44 48.1289 43.5551 46.4506 42.6653C44.7985 41.75 43.5004 40.4661 42.5563 38.8136C41.6385 37.161 41.1795 35.2542 41.1795 33.0932C41.1795 30.9068 41.6385 28.9873 42.5563 27.3347C43.4741 25.6822 44.7591 24.411 46.4112 23.5212C48.0633 22.6314 49.9645 22.1864 52.1149 22.1864C54.1866 22.1864 56.0354 22.6186 57.6612 23.4831C59.3133 24.3475 60.5852 25.5805 61.4768 27.1822C62.3946 28.7585 62.8535 30.5763 62.8535 32.6356ZM57.1499 31.1102C57.1237 29.7373 56.6123 28.6441 55.6158 27.8305C54.6193 26.9915 53.3999 26.572 51.9575 26.572C50.5939 26.572 49.4401 26.9788 48.496 27.7924C47.5782 28.5805 47.0144 29.6864 46.8046 31.1102H57.1499Z" fill="white"/>
<path d="M93.0708 22.2246C95.7456 22.2246 97.896 23.0254 99.5219 24.6271C101.174 26.2034 102 28.4153 102 31.2627V43.6568H96.493V31.9873C96.493 30.3347 96.0603 29.0763 95.1949 28.2119C94.3295 27.322 93.1495 26.8771 91.6547 26.8771C90.16 26.8771 88.9668 27.322 88.0751 28.2119C87.2098 29.0763 86.7771 30.3347 86.7771 31.9873V43.6568H81.2701V31.9873C81.2701 30.3347 80.8374 29.0763 79.972 28.2119C79.1066 27.322 77.9265 26.8771 76.4317 26.8771C74.9108 26.8771 73.7045 27.322 72.8129 28.2119C71.9475 29.0763 71.5148 30.3347 71.5148 31.9873V43.6568H66.0078V22.5297H71.5148V25.0847C72.2228 24.1949 73.1276 23.4958 74.229 22.9873C75.3566 22.4788 76.5891 22.2246 77.9265 22.2246C79.6311 22.2246 81.1521 22.5805 82.4895 23.2924C83.8269 23.9788 84.8627 24.9703 85.597 26.2669C86.3051 25.0466 87.3278 24.0678 88.6652 23.3305C90.0288 22.5932 91.4974 22.2246 93.0708 22.2246Z" fill="white"/>
<path d="M34.6225 37.1356V26.9153H39.5001V22.5297H34.6225V17.3051H29.0761V22.5297V26.9153V37.0975C29.0761 41.4703 31.3969 43.6568 36.0386 43.6568H39.5001V39.1568H36.9433C36.1041 39.1568 35.501 39.0042 35.1338 38.6992C34.7929 38.3686 34.6225 37.8475 34.6225 37.1356Z" fill="white"/>
</svg>
