<svg width="135" height="59" viewBox="0 0 135 59" fill="none" xmlns="http://www.w3.org/2000/svg">
<path d="M19.2119 27.7474C21.6563 26.5263 23.1143 24.1684 23.1143 21.3474C23.1143 16.3368 19.4263 13.0526 13.4226 13.0526H0V43.5789H13.9372C17.2393 43.5789 19.7694 42.7368 21.4419 41.0947C23.1143 39.4526 23.972 37.3895 23.972 34.9895C23.972 31.5789 22.3424 28.8842 19.2119 27.7474ZM12.3076 17.5158C15.3953 17.5158 17.2393 18.9474 17.2393 21.6C17.2393 24.2526 15.3953 25.8105 12.3076 25.8105H5.70354V17.5158H12.3076ZM5.70354 39.1158V30.1474H12.4792C15.6954 30.1474 17.9683 31.5789 17.9683 34.6105C17.9683 37.6421 15.867 39.1158 12.4792 39.1158H5.70354Z" fill="white"/>
<path d="M34.8032 17.5158V12.3789H28.1991V17.5158H34.8032ZM34.2457 43.5789V21.6H28.7994V43.5789H34.2457Z" fill="white"/>
<path d="M49.2516 44C50.1522 44 51.3529 43.8737 52.7681 43.5789V39.2842C51.8675 39.4105 51.1385 39.4526 50.6668 39.4526C48.2653 39.4526 47.5792 38.3158 47.5792 35.5789V25.9368H52.7681V21.6H47.5792V15.7895H42.1329V18.9474C42.1329 20.8 41.5326 21.6 39.4741 21.6H37.6301V25.9368H42.1329V36.4632C42.1329 41.3474 44.6202 44 49.2516 44Z" fill="white"/>
<path d="M61.8863 43.5789V12H56.3971V43.5789H61.8863Z" fill="white"/>
<path d="M74.2076 17.5158V12.3789H67.6035V17.5158H74.2076ZM73.6501 43.5789V21.6H68.2039V43.5789H73.6501Z" fill="white"/>
<path d="M91.658 21.1789C88.7419 21.1789 86.1688 22.4842 84.9252 24.6316L84.5821 21.6H79.7363V52H85.1825V40.8842C86.3832 42.7789 88.8276 44 91.7437 44C94.6169 44 96.9327 42.9474 98.648 40.8842C100.363 38.8211 101.221 36.0842 101.221 32.6737C101.221 29.1368 100.363 26.3579 98.6051 24.2947C96.8469 22.2316 94.5312 21.1789 91.658 21.1789ZM90.4572 39.5789C87.4125 39.5789 85.3112 37.2211 85.1825 33.5579V31.6632C85.3112 28 87.4125 25.6 90.4572 25.6C93.5019 25.6 95.6461 28.1684 95.6461 32.7158C95.6461 37.0526 93.5448 39.5789 90.4572 39.5789Z" fill="white"/>
<path d="M124.387 39.7053C123.572 39.7053 123.144 39.1579 123.144 38.1053V29.2211C123.144 24.1684 120.228 21.1789 114.224 21.1789C108.692 21.1789 104.789 23.8737 104.146 28.5474H109.55C109.893 26.5263 111.522 25.3474 114.052 25.3474C116.282 25.3474 117.612 26.3158 117.612 28.2105C117.44 29.9789 116.54 30.1895 115.51 30.2316L111.179 30.5684C106.676 30.8632 103.846 33.3474 103.846 37.3895C103.846 41.4316 106.719 44 111.05 44C114.31 44 116.968 42.6947 118.04 40.5053C118.341 42.7789 119.799 43.9158 122.329 43.9158C123.487 43.9158 124.387 43.7895 125.073 43.5789V39.6632C124.945 39.7053 124.687 39.7053 124.387 39.7053ZM117.74 34.6526C117.74 37.6421 115.596 39.7895 112.637 39.7895C110.622 39.7895 109.335 38.7789 109.335 36.9684C109.335 35.1579 110.407 34.1895 112.594 34.0211L117.74 33.6421V34.6526Z" fill="white"/>
<path d="M135 43.5789V37.9789H128.868V43.5789H135Z" fill="white"/>
</svg>
