<svg width="120" height="59" viewBox="0 0 120 59" fill="none" xmlns="http://www.w3.org/2000/svg">
<path d="M105.764 39.3732C111.239 39.3732 115.629 34.9429 115.629 29.4637C115.629 23.9844 111.239 19.5911 105.764 19.5911C100.289 19.5911 95.899 24.0214 95.899 29.4637C95.9113 34.8936 100.338 39.3732 105.764 39.3732ZM92.323 16H119.254V42.952H92.323V16Z" fill="white"/>
<path fill-rule="evenodd" clip-rule="evenodd" d="M53.0113 33.5484C51.433 36.9791 48.0049 39.3732 43.9973 39.3732C38.6826 39.3732 34.3297 35.128 34.1324 29.8462H57.4752V16H30.5564V42.952H57.4875V33.5484H53.0113ZM34.564 26.5266H53.3689C51.9879 21.9359 48.2885 19.5911 44.0096 19.5911C39.7307 19.5911 35.7478 22.0963 34.564 26.5266Z" fill="white"/>
<path d="M26.9311 16H0V42.952H26.9311V33.5484H22.4673C20.9259 36.9791 17.4608 39.3732 13.4902 39.3732C8.01522 39.3732 3.58835 34.9059 3.58835 29.4637C3.58835 24.0214 8.01522 19.5911 13.4902 19.5911C17.5348 19.5911 20.9999 22.0593 22.5413 25.564H26.9311V16Z" fill="white"/>
<path d="M88.9567 33.5484H84.4928C83.1487 37.0902 79.5234 39.3362 75.4048 39.3362C70.0901 39.3362 65.6139 35.4859 65.6139 29.4637V16H61.0637V42.952H88.9567V33.5484Z" fill="white"/>
</svg>
