<svg width="120" height="59" viewBox="0 0 120 59" fill="none" xmlns="http://www.w3.org/2000/svg">
<path d="M91.495 40.7945L94.7156 39.7831V13.1113L91.495 14.1228V40.7945ZM54.3452 24.6116C56.3675 24.6116 58.2399 25.5107 59.4383 27.0091L60.749 23.9748C59.0264 22.3266 56.742 21.5399 54.3452 21.5399C48.8027 21.5399 44.9828 25.9228 45.0203 30.7551C45.0577 35.9996 49.1772 40.2701 54.3452 40.2701C56.9666 40.2701 58.9515 39.4834 60.4494 38.397V34.6885C58.8766 36.2618 56.5922 37.1983 54.6073 37.1983C51.6114 37.1983 48.2409 34.7634 48.2409 30.7551C48.2409 27.0466 51.162 24.6116 54.3452 24.6116ZM75.7662 21.5399C70.2237 21.5399 67.0031 25.9228 67.0031 30.7551C67.0031 35.9996 71.16 40.2701 76.328 40.2701C78.9494 40.2701 80.9343 39.4834 82.4322 38.397V34.6885C80.8594 36.2618 78.5749 37.1983 76.5901 37.1983C73.9312 37.1983 71.0102 35.5501 70.411 32.0662H84.5294V30.8301C84.5294 25.6605 81.1215 21.5399 75.7662 21.5399ZM110.557 21.5399C105.389 21.5399 101.194 25.7355 101.194 30.905C101.194 36.0745 105.389 40.2701 110.557 40.2701C115.725 40.2701 119.919 36.0745 119.919 30.905C119.919 25.7355 115.725 21.5399 110.557 21.5399ZM75.8037 24.6116C78.3128 24.6116 80.9717 26.185 81.1964 29.2193H70.411C70.6357 26.185 73.2946 24.6116 75.8037 24.6116ZM110.557 37.1983C109.312 37.1983 108.096 36.8292 107.061 36.1377C106.027 35.4462 105.22 34.4633 104.744 33.3133C104.268 32.1634 104.143 30.898 104.386 29.6772C104.629 28.4564 105.228 27.3351 106.108 26.4549C106.988 25.5748 108.109 24.9754 109.329 24.7326C110.55 24.4897 111.815 24.6144 112.964 25.0907C114.114 25.567 115.097 26.3737 115.788 27.4086C116.479 28.4435 116.848 29.6603 116.848 30.905C116.85 31.7318 116.688 32.5508 116.372 33.315C116.056 34.0791 115.593 34.7735 115.009 35.3581C114.424 35.9428 113.73 36.4063 112.966 36.7221C112.202 37.0379 111.383 37.1997 110.557 37.1983Z" fill="white"/>
<path d="M14.1246 41.3939C19.9158 41.3939 24.6104 36.6979 24.6104 30.905C24.6104 25.1122 19.9158 20.4162 14.1246 20.4162C8.3334 20.4162 3.63875 25.1122 3.63875 30.905C3.63875 36.6979 8.3334 41.3939 14.1246 41.3939ZM14.1246 44.9527C6.36881 44.9527 0.0810547 38.6631 0.0810547 30.905C0.0810547 23.147 6.36881 16.8574 14.1246 16.8574C21.8803 16.8574 28.1681 23.147 28.1681 30.905C28.1681 38.6631 21.8803 44.9527 14.1246 44.9527Z" fill="white"/>
<path d="M21.6143 33.9017C27.4055 33.9017 32.1002 29.2057 32.1002 23.4129C32.1002 17.62 27.4055 12.924 21.6143 12.924C15.8231 12.924 11.1285 17.62 11.1285 23.4129C11.1285 29.2057 15.8231 33.9017 21.6143 33.9017ZM21.6143 37.4605C13.8586 37.4605 7.5708 31.1709 7.5708 23.4129C7.5708 15.6548 13.8586 9.36523 21.6143 9.36523C29.3701 9.36523 35.6578 15.6548 35.6578 23.4129C35.6578 31.1709 29.3701 37.4605 21.6143 37.4605Z" fill="white"/>
</svg>
