<svg width="69" height="59" viewBox="0 0 69 59" fill="none" xmlns="http://www.w3.org/2000/svg">
<path d="M16.9402 41.0868C16.7534 41.2046 16.5586 41.3618 16.3613 41.5268L16.306 41.5713C16.2666 41.6001 16.2271 41.6315 16.1876 41.6603C16.1482 41.6918 16.1061 41.7206 16.064 41.7494C16.0219 41.7808 15.9798 41.8096 15.935 41.8384C15.8929 41.8673 15.8482 41.8961 15.8035 41.9222C15.7587 41.9511 15.7114 41.9799 15.664 42.0061C15.6193 42.0349 15.5719 42.0611 15.5219 42.0872C15.4746 42.1134 15.4272 42.1396 15.3772 42.1658C15.3272 42.192 15.2772 42.2156 15.2272 42.2418C15.1746 42.2653 15.1246 42.2889 15.072 42.3125C15.0193 42.336 14.9667 42.3596 14.9141 42.3832C14.8615 42.4041 14.8062 42.4277 14.7536 42.4487C14.701 42.4696 14.6483 42.4879 14.5931 42.5089C14.5405 42.5272 14.4878 42.5456 14.4352 42.5639C14.3826 42.5796 14.3299 42.5979 14.2773 42.6137C14.2247 42.6294 14.1721 42.6451 14.1194 42.6582C14.0668 42.6739 14.0168 42.687 13.9642 42.7001C13.9116 42.7132 13.8616 42.7263 13.809 42.7368C13.759 42.7472 13.709 42.7577 13.659 42.7682C13.6063 42.776 13.5564 42.7865 13.5064 42.7944C12.9012 42.8991 12.2697 42.9515 11.6197 42.9567H11.1382C7.99383 42.8808 5.37307 41.8542 3.27068 39.8742C1.17092 37.8943 0.0815697 35.4141 0 32.4311V20.7007C0.0815697 17.7176 1.17092 15.2375 3.27068 13.2575C5.37307 11.2802 7.99383 10.2509 11.1382 10.1776H11.7566C12.3512 10.1881 12.9064 10.2274 13.4222 10.2981L13.5721 10.3216C13.6248 10.3321 13.6748 10.34 13.7274 10.3505C13.78 10.3609 13.8326 10.3714 13.8853 10.3845C13.9379 10.395 13.9905 10.4081 14.0458 10.4212C14.0984 10.4343 14.151 10.4474 14.2063 10.4631C14.2589 10.4788 14.3142 10.4945 14.3668 10.5102C14.422 10.5259 14.4747 10.5443 14.5299 10.5626C14.5852 10.5809 14.6378 10.5993 14.6931 10.6176C14.7483 10.6385 14.8009 10.6595 14.8536 10.6805C14.9088 10.7014 14.9615 10.7224 15.0115 10.7433C15.0641 10.7643 15.1167 10.7878 15.1667 10.8114C15.2167 10.835 15.2667 10.8585 15.3167 10.8821C15.3667 10.9057 15.414 10.9293 15.464 10.9554C15.5114 10.979 15.5588 11.0052 15.6061 11.0314C15.6509 11.055 15.6982 11.0812 15.7429 11.1073L15.785 11.1335L15.8429 11.1702L15.9008 11.2095L15.9613 11.2461L16.0166 11.2854L16.0719 11.3247L16.1271 11.364L16.1824 11.4007L16.235 11.4426L16.2876 11.4819L16.3376 11.5211L16.3876 11.5604L16.4376 11.6023L16.485 11.6416L16.5323 11.6835L16.5771 11.7254L16.6218 11.7647L16.6665 11.8066C16.6665 11.8066 16.706 11.8459 16.756 11.8799C16.7876 11.8983 16.8112 11.9114 16.8349 11.9218C16.8718 11.9376 16.906 11.948 16.9454 11.9559C16.9823 11.9637 17.0217 11.9664 17.0638 11.9664C17.1033 11.9664 17.1428 11.9637 17.1796 11.9559C17.2191 11.948 17.2533 11.9349 17.2901 11.9218C17.3243 11.9061 17.3559 11.8878 17.3875 11.8668C17.4191 11.8459 17.448 11.8223 17.4743 11.7961C17.5006 11.7699 17.5243 11.7411 17.5454 11.7123C17.5664 11.6809 17.5848 11.6469 17.598 11.6128C17.6138 11.5788 17.6243 11.5421 17.6322 11.5054C17.6401 11.4661 17.648 11.4269 17.648 11.3876C17.6427 11.0026 17.6348 10.4762 18.0716 10.3478C18.3321 10.2719 18.6505 10.3086 18.911 10.3086H21.5054H22.8895C23.2947 10.3086 23.9052 10.209 24.0736 10.704C24.1999 11.0707 24.1157 11.838 24.1157 12.2309V17.7045V30.514L24.113 37.2421C24.113 39.463 24.2025 41.7075 23.9525 43.9205C23.25 50.0882 20.153 55.3288 13.5985 56.4785C9.63048 57.1726 5.67567 55.7662 2.61286 53.2493C2.23922 52.9429 1.46036 52.427 1.49194 51.8979C1.50509 51.712 1.59456 51.5391 1.71823 51.4003C1.71823 51.4003 4.26004 48.7264 4.44423 48.4933C4.62579 48.2942 4.87839 48.0088 5.15994 48.0088C5.55989 48.0114 5.97827 48.3833 6.7045 48.8075C7.9412 49.5304 9.26737 50.193 10.6777 50.4025C11.5697 50.5361 12.5407 50.413 13.3958 50.138C16.7192 49.0668 17.6401 44.8896 17.8322 41.6158V41.5608C17.8322 41.5399 17.8322 41.5215 17.8295 41.5032C17.8269 41.4823 17.8243 41.4639 17.8217 41.4456C17.8164 41.4273 17.8111 41.4089 17.8059 41.3906C17.8006 41.3723 17.7953 41.3539 17.7874 41.3382C17.7796 41.3199 17.7717 41.3042 17.7638 41.2885C17.7559 41.2727 17.7453 41.257 17.7348 41.2413C17.7243 41.2256 17.7138 41.2099 17.7006 41.1968C17.6901 41.1837 17.6769 41.1706 17.6638 41.1575C17.6506 41.1444 17.6375 41.1313 17.6243 41.1208C17.6112 41.1077 17.5954 41.0973 17.5796 41.0868C17.5638 41.0763 17.548 41.0658 17.5322 41.058C17.5164 41.0501 17.5006 41.0423 17.4822 41.0344C17.4664 41.0266 17.448 41.0213 17.4296 41.0161C17.4112 41.0082 17.3928 41.0056 17.3743 41.0004C17.3559 40.9977 17.3375 40.9951 17.3165 40.9925C17.298 40.9899 17.2796 40.9899 17.2586 40.9899C17.2401 40.9899 17.2191 40.9899 17.2007 40.9925C17.1823 40.9951 17.1612 40.9977 17.1428 41.0004C17.1244 41.0056 17.1059 41.0082 17.0875 41.0161C17.0691 41.0213 17.0533 41.0266 17.0349 41.0344C17.0191 41.0423 16.956 41.0763 16.9402 41.0868ZM17.6375 32.5175V20.7426C17.5875 19.1764 17.0191 18.1995 15.9271 17.3222C14.8378 16.4474 13.8142 15.9996 12.2644 15.9865H11.6645C10.0541 16.0232 9.00161 16.5496 7.91752 17.5605C6.8308 18.5714 6.26771 19.5955 6.22561 21.1223V32.012C6.26771 33.5363 6.8308 34.5603 7.91752 35.5712C9.00161 36.5821 10.0541 37.1086 11.6645 37.1452H12.2644C13.8142 37.1243 14.8378 36.6764 15.9271 35.8017C17.0191 34.927 17.5875 33.9946 17.6375 32.5175Z" fill="white"/>
<path d="M69.0003 42.2003V37.8947C68.9976 37.6433 68.9318 37.4625 68.8003 37.3473C68.6713 37.2321 68.4977 37.1745 68.2793 37.1771H56.3649C56.078 37.1745 55.8754 37.1247 55.7518 37.0226C55.6412 36.9257 55.5623 36.8052 55.5623 36.6192C55.5544 36.449 55.6281 36.2395 55.7149 36.0981L68.7687 11.5766C68.8055 11.5032 68.8397 11.4194 68.8687 11.3251C68.8976 11.2335 68.9108 11.1497 68.9134 11.0737C68.9003 10.7044 68.6371 10.5133 68.1188 10.5002H46.7344C46.2423 10.4897 46.0002 10.728 46.0134 11.2178V15.526C46.0002 16.0157 46.2423 16.2541 46.7344 16.2436H57.9041C58.1568 16.2436 58.362 16.2881 58.4988 16.3876C58.6356 16.4898 58.6962 16.6364 58.6988 16.8171C58.6962 16.8931 58.6804 16.9769 58.6541 17.0686C58.6251 17.1628 58.5909 17.2466 58.5541 17.32L45.3635 41.8415C45.3266 41.9148 45.2924 41.9986 45.2635 42.0929C45.2345 42.1846 45.2214 42.2684 45.2188 42.3443C45.2293 42.7136 45.495 42.9048 46.0134 42.9179H68.2793C68.5293 42.9205 68.7134 42.8629 68.8292 42.7476C68.945 42.6324 69.0003 42.4491 69.0003 42.2003Z" fill="white"/>
<path d="M32.0106 6.33487C32.0317 6.57058 32.1027 6.7539 32.2238 6.877C32.3659 7.01842 32.5843 7.09175 32.879 7.09961H37.3811C37.6758 7.09175 37.8942 7.01842 38.0363 6.877C38.1573 6.75652 38.2468 6.57581 38.2468 6.34272C38.2468 6.34272 38.2468 6.21701 38.2468 6.21178V1.2331C38.2389 0.937151 38.1705 0.711919 38.0284 0.570494C37.8863 0.429069 37.6679 0.355738 37.3732 0.345262H37.0153C36.7364 0.345262 36.5022 0.405498 36.2444 0.677872L32.4658 4.8761L32.2843 5.08823C32.0817 5.32132 32.0054 5.51775 32.0054 5.76917V6.21178C32.0054 6.24844 32.0106 6.33487 32.0106 6.33487Z" fill="white"/>
<path d="M38.2167 11.2414C38.2167 10.9874 38.1535 10.7883 38.0378 10.6652C37.9115 10.5369 37.7115 10.4714 37.4405 10.4741H32.7541C32.4831 10.4767 32.2858 10.5526 32.1595 10.6967C32.0411 10.8329 31.9753 11.0136 31.9753 11.2414V11.3697L31.9727 28.8933L31.9779 42.1506C31.9779 42.4046 32.0411 42.6037 32.1595 42.7268C32.2831 42.8551 32.4831 42.918 32.7541 42.918H37.4405C37.7115 42.9153 37.9115 42.8394 38.0351 42.6954C38.1535 42.5592 38.2167 42.3785 38.2167 42.1506V11.2414Z" fill="white"/>
</svg>
