<svg width="43" height="36" viewBox="0 0 43 36" fill="none" xmlns="http://www.w3.org/2000/svg">
<path d="M12.2897 24.8629C12.1894 24.9262 12.0849 25.0105 11.979 25.099L11.9494 25.1229C11.9282 25.1384 11.907 25.1553 11.8858 25.1707C11.8646 25.1876 11.842 25.203 11.8195 25.2185C11.7969 25.2354 11.7743 25.2508 11.7503 25.2663C11.7277 25.2817 11.7037 25.2972 11.6797 25.3113C11.6557 25.3267 11.6302 25.3422 11.6048 25.3562C11.5808 25.3717 11.5554 25.3857 11.5286 25.3998C11.5032 25.4138 11.4778 25.4279 11.4509 25.442C11.4241 25.456 11.3973 25.4687 11.3704 25.4827C11.3422 25.4954 11.3154 25.508 11.2871 25.5207C11.2589 25.5333 11.2307 25.546 11.2024 25.5586C11.1742 25.5698 11.1445 25.5825 11.1163 25.5937C11.088 25.605 11.0598 25.6148 11.0302 25.6261C11.0019 25.6359 10.9737 25.6457 10.9454 25.6556C10.9172 25.664 10.889 25.6738 10.8607 25.6823C10.8325 25.6907 10.8042 25.6991 10.776 25.7062C10.7478 25.7146 10.7209 25.7216 10.6927 25.7287C10.6644 25.7357 10.6376 25.7427 10.6094 25.7483C10.5825 25.754 10.5557 25.7596 10.5289 25.7652C10.5007 25.7694 10.4738 25.775 10.447 25.7793C10.1222 25.8355 9.78336 25.8636 9.4346 25.8664H9.1762C7.48886 25.8256 6.08252 25.2747 4.95433 24.2122C3.82756 23.1498 3.24299 21.8188 3.19922 20.2181V13.9233C3.24299 12.3226 3.82756 10.9917 4.95433 9.9292C6.08252 8.86812 7.48886 8.3158 9.1762 8.27645H9.50802C9.82713 8.28207 10.1251 8.30316 10.4018 8.3411L10.4823 8.35375C10.5105 8.35937 10.5374 8.36359 10.5656 8.36921C10.5938 8.37483 10.6221 8.38045 10.6503 8.38748C10.6786 8.3931 10.7068 8.40013 10.7365 8.40715C10.7647 8.41418 10.7929 8.42121 10.8226 8.42964C10.8508 8.43807 10.8805 8.4465 10.9087 8.45494C10.9384 8.46337 10.9666 8.47321 10.9963 8.48305C11.0259 8.49288 11.0542 8.50272 11.0838 8.51256C11.1135 8.5238 11.1417 8.53505 11.1699 8.54629C11.1996 8.55753 11.2278 8.56877 11.2547 8.58002C11.2829 8.59126 11.3111 8.60391 11.338 8.61656C11.3648 8.62921 11.3916 8.64186 11.4185 8.6545C11.4453 8.66715 11.4707 8.6798 11.4975 8.69386C11.5229 8.7065 11.5484 8.72056 11.5738 8.73461C11.5978 8.74726 11.6232 8.76131 11.6472 8.77537L11.6698 8.78942L11.7009 8.8091L11.7319 8.83018L11.7644 8.84985L11.794 8.87093L11.8237 8.89201L11.8533 8.9131L11.883 8.93277L11.9112 8.95526L11.9395 8.97634L11.9663 8.99742L11.9931 9.0185L12.02 9.04099L12.0454 9.06207L12.0708 9.08455L12.0948 9.10704L12.1188 9.12812L12.1428 9.15061C12.1428 9.15061 12.164 9.17169 12.1908 9.18996C12.2078 9.19979 12.2205 9.20682 12.2332 9.21244C12.2529 9.22088 12.2713 9.2265 12.2925 9.23072C12.3122 9.23493 12.3334 9.23634 12.356 9.23634C12.3772 9.23634 12.3984 9.23493 12.4181 9.23072C12.4393 9.2265 12.4577 9.21947 12.4774 9.21244C12.4958 9.20401 12.5127 9.19418 12.5297 9.18293C12.5466 9.17169 12.5622 9.15904 12.5763 9.14499C12.5904 9.13093 12.6031 9.11547 12.6144 9.10001C12.6257 9.08315 12.6356 9.06488 12.6427 9.04661C12.6511 9.02834 12.6568 9.00866 12.661 8.98899C12.6652 8.96791 12.6695 8.94683 12.6695 8.92574C12.6667 8.71915 12.6624 8.43667 12.8968 8.3678C13.0366 8.32705 13.2074 8.34672 13.3472 8.34672H14.7395H15.4822C15.6996 8.34672 16.0272 8.29332 16.1176 8.55894C16.1854 8.75569 16.1402 9.16747 16.1402 9.37828V12.3156V19.1893L16.1388 22.7998C16.1388 23.9916 16.1868 25.196 16.0526 26.3836C15.6756 29.6933 14.0137 32.5055 10.4964 33.1224C8.36713 33.4949 6.2449 32.7402 4.60133 31.3896C4.40083 31.2252 3.98288 30.9483 3.99982 30.6644C4.00688 30.5646 4.05489 30.4719 4.12125 30.3974C4.12125 30.3974 5.48524 28.9625 5.58408 28.8374C5.68151 28.7306 5.81706 28.5774 5.96814 28.5774C6.18277 28.5788 6.40727 28.7784 6.79699 29.006C7.46062 29.3939 8.17227 29.7495 8.9291 29.8619C9.40777 29.9336 9.92879 29.8675 10.3877 29.72C12.171 29.1452 12.6652 26.9036 12.7683 25.1468V25.1173C12.7683 25.1061 12.7683 25.0962 12.7669 25.0864C12.7655 25.0751 12.7641 25.0653 12.7627 25.0555C12.7598 25.0456 12.757 25.0358 12.7542 25.026C12.7514 25.0161 12.7486 25.0063 12.7443 24.9978C12.7401 24.988 12.7358 24.9796 12.7316 24.9711C12.7274 24.9627 12.7217 24.9543 12.7161 24.9459C12.7104 24.9374 12.7048 24.929 12.6977 24.922C12.6921 24.9149 12.685 24.9079 12.678 24.9009C12.6709 24.8939 12.6638 24.8868 12.6568 24.8812C12.6497 24.8742 12.6412 24.8686 12.6328 24.8629C12.6243 24.8573 12.6158 24.8517 12.6074 24.8475C12.5989 24.8433 12.5904 24.839 12.5805 24.8348C12.5721 24.8306 12.5622 24.8278 12.5523 24.825C12.5424 24.8208 12.5325 24.8194 12.5226 24.8166C12.5127 24.8151 12.5029 24.8137 12.4916 24.8123C12.4817 24.8109 12.4718 24.8109 12.4605 24.8109C12.4506 24.8109 12.4393 24.8109 12.4294 24.8123C12.4196 24.8137 12.4083 24.8151 12.3984 24.8166C12.3885 24.8194 12.3786 24.8208 12.3687 24.825C12.3588 24.8278 12.3504 24.8306 12.3405 24.8348C12.332 24.839 12.2981 24.8573 12.2897 24.8629ZM12.6638 20.2645V13.9458C12.637 13.1054 12.332 12.5812 11.746 12.1104C11.1615 11.641 10.6122 11.4006 9.78053 11.3936H9.4586C8.59446 11.4133 8.02966 11.6958 7.44792 12.2383C6.86476 12.7807 6.56259 13.3303 6.54 14.1496V19.9932C6.56259 20.8112 6.86476 21.3607 7.44792 21.9032C8.02966 22.4457 8.59446 22.7281 9.4586 22.7478H9.78053C10.6122 22.7366 11.1615 22.4962 11.746 22.0268C12.332 21.5574 12.637 21.0571 12.6638 20.2645Z" fill="white"/>
<path d="M40.226 25.4601V23.1496C40.2246 23.0147 40.1893 22.9177 40.1187 22.8559C40.0495 22.7941 39.9563 22.7631 39.8391 22.7645H33.4456C33.2917 22.7631 33.1829 22.7364 33.1166 22.6816C33.0573 22.6296 33.0149 22.565 33.0149 22.4652C33.0107 22.3738 33.0502 22.2614 33.0968 22.1855L40.1017 9.0268C40.1215 8.98745 40.1398 8.94247 40.1554 8.89188C40.1709 8.84269 40.178 8.79772 40.1794 8.75696C40.1723 8.5588 40.0311 8.45621 39.753 8.44918H28.2777C28.0136 8.44356 27.8837 8.57145 27.8908 8.83426V11.1461C27.8837 11.4089 28.0136 11.5368 28.2777 11.5312H34.2716C34.4071 11.5312 34.5173 11.5551 34.5907 11.6085C34.6641 11.6633 34.6966 11.742 34.698 11.839C34.6966 11.8798 34.6881 11.9247 34.674 11.9739C34.6585 12.0245 34.6401 12.0695 34.6204 12.1088L27.542 25.2676C27.5222 25.3069 27.5039 25.3519 27.4884 25.4025C27.4728 25.4517 27.4658 25.4966 27.4644 25.5374C27.47 25.7355 27.6126 25.8381 27.8908 25.8452H39.8391C39.9732 25.8466 40.0721 25.8157 40.1342 25.7538C40.1963 25.692 40.226 25.5936 40.226 25.4601Z" fill="white"/>
<path d="M20.3766 6.21414C20.3879 6.34062 20.426 6.439 20.491 6.50505C20.5672 6.58094 20.6844 6.6203 20.8426 6.62451H23.2585C23.4166 6.6203 23.5338 6.58094 23.6101 6.50505C23.675 6.4404 23.723 6.34343 23.723 6.21835C23.723 6.21835 23.723 6.15089 23.723 6.14808V3.47643C23.7188 3.31762 23.6821 3.19675 23.6058 3.12086C23.5296 3.04497 23.4124 3.00562 23.2543 3H23.0622C22.9125 3 22.7869 3.03232 22.6485 3.17848L20.6209 5.43133L20.5235 5.54517C20.4147 5.67025 20.3738 5.77565 20.3738 5.91057V6.14808C20.3738 6.16776 20.3766 6.21414 20.3766 6.21414Z" fill="white"/>
<path d="M23.7069 8.84695C23.7069 8.71063 23.673 8.60382 23.6109 8.53777C23.5431 8.4689 23.4358 8.43377 23.2903 8.43517H20.7756C20.6301 8.43658 20.5242 8.47733 20.4565 8.55463C20.3929 8.62771 20.3576 8.72468 20.3576 8.84695V8.91582L20.3562 18.3193L20.359 25.4334C20.359 25.5698 20.3929 25.6766 20.4565 25.7426C20.5228 25.8115 20.6301 25.8452 20.7756 25.8452H23.2903C23.4358 25.8438 23.5431 25.8031 23.6094 25.7258C23.673 25.6527 23.7069 25.5557 23.7069 25.4334V8.84695Z" fill="white"/>
</svg>
