<svg width="101" height="60" viewBox="0 0 101 60" fill="none" xmlns="http://www.w3.org/2000/svg">
<path d="M62.8849 8.28021L62.4935 6.34294L41.1704 14.3713L47.6733 14.6294C47.8014 14.1556 47.933 13.6819 48.0611 13.2153C95.2182 1.0508 100.899 13.0385 93.9127 22.4067H95.855C108.633 6.82372 86.7338 2.70526 62.8849 8.28021Z" fill="white"/>
<path fill-rule="evenodd" clip-rule="evenodd" d="M62.4935 6.34294L62.8849 8.28022C63.0642 8.2383 63.2434 8.19692 63.4225 8.1561C87.0612 2.76785 108.537 6.9409 95.855 22.4067H93.9127C94.0484 22.2247 94.1794 22.0417 94.3054 21.8579C100.663 12.5818 94.3019 1.28717 48.0611 13.2153C48.0212 13.3606 47.981 13.5066 47.9407 13.6531C47.8514 13.977 47.7615 14.3032 47.6734 14.6294L41.1704 14.3713L62.4935 6.34294ZM48.5088 13.667C48.4967 13.7113 48.4845 13.7555 48.4723 13.7998C48.3832 14.123 48.2939 14.447 48.2061 14.7719L48.0917 15.1953L41.1484 14.9197L40.9751 13.858L62.9063 5.60068L63.3138 7.61781C75.0758 4.93862 86.3851 4.59601 93.28 6.88869C96.779 8.05215 99.2861 9.94735 99.9831 12.7077C100.676 15.454 99.5129 18.8142 96.2825 22.7537L96.1169 22.9556H92.8164L93.4696 22.0797C95.1728 19.7959 96.0419 17.4314 95.7801 15.3768C95.5241 13.3686 94.1669 11.5121 91.0802 10.2435C87.9712 8.96576 83.1551 8.31183 76.1369 8.74994C69.1898 9.18362 60.1284 10.6842 48.5088 13.667Z" fill="white"/>
<path d="M52.949 46.7459C5.41128 59.0094 0.0266011 46.955 7.25527 37.5762H5.32438C-7.83806 53.3183 14.1661 57.2771 38.1253 51.6739C38.2569 52.3208 38.3885 52.9643 38.5166 53.6112L59.8398 45.6005L53.3404 45.3424C53.2087 45.7985 53.0807 46.2722 52.949 46.7459Z" fill="white"/>
<path fill-rule="evenodd" clip-rule="evenodd" d="M6.8488 38.1251C0.251384 47.4137 6.33374 58.7714 52.949 46.7459C52.988 46.6052 53.0268 46.4646 53.0655 46.3243C53.157 45.9924 53.2477 45.6631 53.3403 45.3425L59.8397 45.6005L38.5165 53.6112C38.4805 53.4291 38.4441 53.2472 38.4076 53.0655C38.3504 52.7809 38.2927 52.4967 38.2348 52.2121C38.2173 52.1261 38.1997 52.04 38.1822 51.9539C38.1632 51.8607 38.1442 51.7673 38.1252 51.6739C37.9459 51.7159 37.7667 51.7573 37.5876 51.7981C13.8386 57.2173 -7.73964 53.2005 5.32429 37.5762H7.25518C7.1149 37.7582 6.97937 37.9412 6.8488 38.1251ZM37.6971 52.3363C37.7909 52.7971 37.884 53.2563 37.9752 53.7173L38.1013 54.3539L60.0346 46.114L59.8617 45.0521L52.9296 44.7769L52.81 45.191C52.7165 45.5151 52.6242 45.8498 52.5323 46.1834C52.5221 46.2203 52.5119 46.2572 52.5018 46.2941C40.7869 49.3018 31.6723 50.8168 24.7028 51.258C17.662 51.7036 12.8563 51.0499 9.77727 49.7705C6.72304 48.5014 5.41482 46.6445 5.20909 44.6346C4.99811 42.5734 5.92838 40.1996 7.69298 37.9102L8.37342 37.0273H5.0656L4.90016 37.2252C1.57614 41.2007 0.343356 44.5784 0.990036 47.3329C1.64146 50.1078 4.13549 51.999 7.63069 53.1506C14.5188 55.42 25.8817 55.0306 37.6971 52.3363Z" fill="white"/>
<path d="M3.20557 19.3906H6.44637V35.7478C6.44637 36.2166 6.63377 36.6662 6.96734 36.9977C7.30092 37.3292 7.75333 37.5154 8.22508 37.5154H24.6852V40.7183H6.80211C5.85325 40.7173 4.94353 40.3423 4.27259 39.6756C3.60164 39.0088 3.22429 38.1048 3.22335 37.1619L3.20557 19.3906Z" fill="white"/>
<path fill-rule="evenodd" clip-rule="evenodd" d="M2.65332 18.8428H6.99804V35.7488C6.99804 36.0719 7.12717 36.3818 7.35721 36.6104C7.58728 36.839 7.89944 36.9676 8.22507 36.9676H25.2369V41.2681H6.80155C5.70677 41.267 4.65701 40.8344 3.8827 40.0649C3.10836 39.2954 2.67274 38.2519 2.67165 37.1634L2.65332 18.8428ZM3.20555 19.3916L3.22334 37.1629C3.22428 38.1058 3.60163 39.0099 4.27257 39.6766C4.94352 40.3433 5.85324 40.7183 6.8021 40.7193H24.6852V37.5164H8.22507C7.75332 37.5164 7.30091 37.3302 6.96733 36.9987C6.63376 36.6672 6.44636 36.2176 6.44636 35.7488V19.3916H3.20555Z" fill="white"/>
<path d="M49.1071 22.947V40.7253H45.8876V32.7253H30.8611V40.7253H27.6416V22.947C27.6416 22.0038 28.0187 21.0992 28.6898 20.4323C29.361 19.7653 30.2712 19.3906 31.2204 19.3906H45.5319C46.4804 19.3916 47.3897 19.7667 48.0601 20.4335C48.7305 21.1004 49.1071 22.0044 49.1071 22.947ZM45.8876 24.3611C45.8876 23.8923 45.7002 23.4427 45.3666 23.1112C45.0331 22.7797 44.5806 22.5935 44.1089 22.5935H32.6505C32.1787 22.5935 31.7263 22.7797 31.3927 23.1112C31.0591 23.4427 30.8717 23.8923 30.8717 24.3611V29.5189H45.8983L45.8876 24.3611Z" fill="white"/>
<path fill-rule="evenodd" clip-rule="evenodd" d="M49.6587 41.2752H45.3358V33.2751H31.4127V41.2752H27.0898V22.948C27.0898 21.859 27.5252 20.8148 28.2999 20.0449C29.0745 19.2751 30.125 18.8428 31.2203 18.8428H45.5323C46.6269 18.8439 47.6764 19.2767 48.4501 20.0464C49.2239 20.8161 49.6587 21.8597 49.6587 22.948V41.2752ZM30.861 32.7263H45.8875V40.7263H49.107V22.948C49.107 22.0054 48.7304 21.1014 48.06 20.4345C47.3897 19.7677 46.4803 19.3926 45.5318 19.3916H31.2203C30.2712 19.3916 29.3609 19.7663 28.6897 20.4333C28.0186 21.1002 27.6415 22.0048 27.6415 22.948V40.7263H30.861V32.7263ZM45.3358 24.3621C45.3358 24.039 45.2067 23.7291 44.9767 23.5005C44.7466 23.2719 44.4344 23.1433 44.1088 23.1433H32.6504C32.3248 23.1433 32.0126 23.2719 31.7825 23.5005C31.5525 23.7291 31.4234 24.039 31.4234 24.3621V28.971H45.3454L45.3358 24.3621ZM45.8875 24.3621C45.8875 23.8933 45.7001 23.4437 45.3666 23.1122C45.033 22.7807 44.5806 22.5945 44.1088 22.5945H32.6504C32.1786 22.5945 31.7262 22.7807 31.3926 23.1122C31.0591 23.4437 30.8717 23.8933 30.8717 24.3621V29.5199H45.898L45.8875 24.3621Z" fill="white"/>
<path d="M69.964 19.3906C70.9128 19.3916 71.8226 19.7666 72.4935 20.4333C73.1645 21.1 73.5418 22.0041 73.5427 22.947V25.4216C73.5418 26.3645 73.1645 27.2686 72.4935 27.9353C71.8226 28.6021 70.9128 28.9771 69.964 28.978H62.81C62.527 28.978 62.2555 29.0897 62.0554 29.2886C61.8552 29.4875 61.7428 29.7573 61.7428 30.0385C61.7428 30.3198 61.8552 30.5896 62.0554 30.7885C62.2555 30.9873 62.527 31.0991 62.81 31.0991H69.964C70.9131 31.0991 71.8234 31.4738 72.4945 32.1407C73.1657 32.8077 73.5427 33.7123 73.5427 34.6555V37.1301C73.5418 38.073 73.1645 38.977 72.4935 39.6438C71.8226 40.3105 70.9128 40.6855 69.964 40.6865H52.0737V19.3906H69.964ZM58.5162 30.7703V29.3563C58.5162 28.8897 58.6087 28.4277 58.7884 27.9966C58.968 27.5656 59.2314 27.1739 59.5634 26.844C59.8953 26.5141 60.2895 26.2524 60.7232 26.0739C61.157 25.8953 61.6219 25.8034 62.0914 25.8034H68.7011C69.1285 25.8034 69.5384 25.6347 69.8406 25.3344C70.1428 25.034 70.3126 24.6267 70.3126 24.202C70.3126 23.7773 70.1428 23.3699 69.8406 23.0696C69.5384 22.7693 69.1285 22.6006 68.7011 22.6006H55.2967V37.5331H68.7011C68.9189 37.5433 69.1364 37.5094 69.3406 37.4336C69.5449 37.3578 69.7315 37.2416 69.8892 37.0921C70.0469 36.9425 70.1725 36.7628 70.2583 36.5636C70.3441 36.3644 70.3883 36.1501 70.3883 35.9334C70.3883 35.7168 70.3441 35.5024 70.2583 35.3032C70.1725 35.1041 70.0469 34.9243 69.8892 34.7748C69.7315 34.6252 69.5449 34.509 69.3406 34.4332C69.1364 34.3574 68.9189 34.3236 68.7011 34.3338H62.0914C61.621 34.3338 61.1552 34.2415 60.7208 34.0623C60.2863 33.8831 59.8917 33.6205 59.5596 33.2894C59.2275 32.9584 58.9643 32.5655 58.7853 32.1332C58.6062 31.7009 58.5148 31.2378 58.5162 30.7703Z" fill="white"/>
<path fill-rule="evenodd" clip-rule="evenodd" d="M69.9647 18.8428C71.0595 18.8439 72.1092 19.2765 72.8836 20.046C73.6579 20.8155 74.0935 21.859 74.0946 22.9475L74.0946 22.948L74.0946 25.4232C74.0935 26.5117 73.6579 27.5551 72.8836 28.3246C72.1092 29.0941 71.0595 29.5268 69.9647 29.5279H62.8102C62.6732 29.5279 62.542 29.5819 62.4454 29.6779C62.3488 29.7739 62.2946 29.904 62.2946 30.0395C62.2946 30.1751 62.3488 30.3051 62.4454 30.4011C62.5421 30.4972 62.6733 30.5512 62.8102 30.5512H69.9641C71.0594 30.5512 72.1099 30.9836 72.8846 31.7534C73.6593 32.5232 74.0946 33.5675 74.0946 34.6565V37.1316C74.0935 38.2201 73.6579 39.2636 72.8836 40.0331C72.1092 40.8026 71.0595 41.2352 69.9647 41.2363H51.5222V18.8428H69.9647ZM68.7142 36.9852L68.7271 36.9858C68.8705 36.9925 69.0136 36.9703 69.148 36.9204C69.2823 36.8705 69.4051 36.7941 69.5088 36.6958C69.6125 36.5975 69.695 36.4793 69.7514 36.3484C69.8077 36.2176 69.8368 36.0767 69.8368 35.9344C69.8368 35.7921 69.8077 35.6513 69.7514 35.5204C69.695 35.3896 69.6125 35.2714 69.5088 35.1731C69.4051 35.0748 69.2823 34.9983 69.148 34.9485C69.0136 34.8986 68.8705 34.8763 68.7271 34.883L68.7142 34.8836H62.0916C61.5487 34.8836 61.0111 34.7772 60.5096 34.5703C60.0082 34.3635 59.5527 34.0603 59.1693 33.6782C58.7859 33.296 58.4821 32.8424 58.2754 32.3433C58.0688 31.8445 57.9632 31.31 57.9647 30.7706V29.3573C57.9647 28.8185 58.0715 28.2851 58.2789 27.7874C58.4864 27.2897 58.7904 26.8375 59.1737 26.4567C59.5569 26.0758 60.0119 25.7738 60.5125 25.5677C61.0131 25.3616 61.5497 25.2556 62.0916 25.2556H68.7013C68.9826 25.2556 69.2522 25.1445 69.4509 24.9471C69.6496 24.7496 69.7611 24.4819 69.7611 24.203C69.7611 23.924 69.6496 23.6564 69.4509 23.4589C69.2522 23.2615 68.9825 23.1504 68.7013 23.1504H55.8486V36.9852H68.7142ZM55.2969 37.5341V22.6016H68.7013C69.1287 22.6016 69.5386 22.7703 69.8408 23.0706C70.143 23.3709 70.3128 23.7783 70.3128 24.203C70.3128 24.6277 70.143 25.035 69.8408 25.3354C69.5386 25.6357 69.1287 25.8044 68.7013 25.8044H62.0916C61.6221 25.8044 61.1572 25.8963 60.7234 26.0749C60.2897 26.2534 59.8955 26.5151 59.5635 26.845C59.2315 27.1749 58.9682 27.5666 58.7885 27.9976C58.6089 28.4287 58.5164 28.8907 58.5164 29.3573V30.7713C58.515 31.2388 58.6064 31.7019 58.7855 32.1342C58.9645 32.5665 59.2276 32.9594 59.5598 33.2904C59.8919 33.6215 60.2865 33.8841 60.7209 34.0633C61.1554 34.2425 61.6212 34.3348 62.0916 34.3348H68.7013C68.919 34.3246 69.1366 34.3584 69.3408 34.4342C69.545 34.51 69.7317 34.6262 69.8894 34.7758C70.0471 34.9253 70.1727 35.1051 70.2584 35.3042C70.3442 35.5034 70.3885 35.7178 70.3885 35.9344C70.3885 36.1511 70.3442 36.3654 70.2584 36.5646C70.1727 36.7638 70.0471 36.9436 69.8894 37.0931C69.7317 37.2426 69.545 37.3588 69.3408 37.4346C69.1366 37.5104 68.919 37.5443 68.7013 37.5341H55.2969ZM69.9641 40.6875H52.0739V19.3916H69.9641C70.913 19.3926 71.8227 19.7676 72.4937 20.4343C73.1646 21.101 73.542 22.0051 73.5429 22.948V25.4226C73.542 26.3655 73.1646 27.2696 72.4937 27.9363C71.8227 28.6031 70.913 28.9781 69.9641 28.979H62.8102C62.5271 28.979 62.2557 29.0907 62.0555 29.2896C61.8554 29.4885 61.743 29.7583 61.743 30.0395C61.743 30.3208 61.8554 30.5906 62.0555 30.7895C62.2557 30.9884 62.5271 31.1001 62.8102 31.1001H69.9641C70.9133 31.1001 71.8236 31.4748 72.4947 32.1417C73.1659 32.8087 73.5429 33.7133 73.5429 34.6565V37.1311C73.542 38.074 73.1646 38.978 72.4937 39.6448C71.8227 40.3115 70.913 40.6865 69.9641 40.6875Z" fill="white"/>
<path d="M94.3999 40.7474H80.0849C79.1398 40.7427 78.235 40.3664 77.5683 39.7006C76.9017 39.0348 76.5275 38.1338 76.5275 37.1946V34.3488H79.7291V35.7628C79.7291 36.2316 79.9165 36.6812 80.2501 37.0127C80.5837 37.3442 81.0361 37.5304 81.5078 37.5304H92.9556C93.4274 37.5304 93.8798 37.3442 94.2133 37.0127C94.5469 36.6812 94.7343 36.2316 94.7343 35.7628V35.0558C94.7343 34.587 94.5469 34.1374 94.2133 33.8059C93.8798 33.4744 93.4274 33.2882 92.9556 33.2882H89.7362C88.7876 33.2882 87.8779 32.914 87.2069 32.2478C86.5358 31.5816 86.1583 30.678 86.1574 29.7354V28.3213C86.163 27.3818 86.5426 26.4826 87.2131 25.8203C87.8836 25.1579 88.7907 24.7861 89.7362 24.7861H93.6707C93.9537 24.7861 94.2252 24.6744 94.4253 24.4755C94.6255 24.2766 94.7379 24.0069 94.7379 23.7256C94.7379 23.4443 94.6255 23.1746 94.4253 22.9757C94.2252 22.7768 93.9537 22.665 93.6707 22.665H76.5275V19.4834H94.4177C95.3634 19.4881 96.2688 19.8649 96.9355 20.5315C97.6023 21.198 97.9761 22.0999 97.9751 23.0398V24.4538C97.9761 25.3937 97.6023 26.2956 96.9355 26.9621C96.2688 27.6287 95.3634 28.0055 94.4177 28.0102H90.4619C90.1788 28.0102 89.9074 28.1219 89.7072 28.3208C89.5071 28.5197 89.3946 28.7895 89.3946 29.0708C89.3946 29.352 89.5071 29.6218 89.7072 29.8207C89.9074 30.0196 90.1788 30.1313 90.4619 30.1313H94.3999C95.3454 30.1369 96.2502 30.5141 96.9167 31.1804C97.5833 31.8468 97.9574 32.7481 97.9573 33.6877V37.2441C97.9443 38.1747 97.5643 39.063 96.8991 39.7182C96.2338 40.3733 95.3365 40.7429 94.3999 40.7474Z" fill="white"/>
<path fill-rule="evenodd" clip-rule="evenodd" d="M94.4027 41.2963L94.4 41.2963L80.0822 41.2963C78.9915 41.2909 77.9471 40.8565 77.1776 40.088C76.408 39.3194 75.9759 38.2791 75.9759 37.1946V33.7999H80.2809V35.7629C80.2809 36.0859 80.41 36.3958 80.6401 36.6244C80.8701 36.853 81.1823 36.9816 81.5079 36.9816H92.9557C93.2813 36.9816 93.5935 36.853 93.8236 36.6244C94.0536 36.3958 94.1827 36.0859 94.1827 35.7629V35.0558C94.1827 34.7328 94.0536 34.4229 93.8236 34.1943C93.5935 33.9656 93.2813 33.8371 92.9557 33.8371H89.7362C88.6417 33.8371 87.5918 33.4053 86.8173 32.6364C86.0427 31.8674 85.6069 30.8242 85.6058 29.7359L85.6058 29.7354L85.6058 28.3197L85.6058 28.3181C85.6123 27.2333 86.0505 26.1954 86.8245 25.4308C87.5984 24.6663 88.6453 24.2373 89.7363 24.2373H93.6707C93.8077 24.2373 93.9389 24.1833 94.0355 24.0872C94.1321 23.9912 94.1863 23.8611 94.1863 23.7256C94.1863 23.5901 94.1321 23.46 94.0355 23.364C93.9389 23.268 93.8077 23.2139 93.6707 23.2139H75.9759V18.9346H94.4205C95.512 18.94 96.557 19.3749 97.3267 20.1444C98.0964 20.9138 98.528 21.9551 98.5269 23.0404L97.9752 23.0398H98.5269V23.0404V24.4533L97.9752 24.4539H98.5269V24.4533C98.528 25.5385 98.0964 26.5798 97.3267 27.3493C96.557 28.1188 95.512 28.5537 94.4205 28.5591L94.4178 28.5591L90.462 28.5591C90.325 28.5591 90.1938 28.6132 90.0972 28.7092C90.0006 28.8052 89.9464 28.9353 89.9464 29.0708C89.9464 29.2063 90.0006 29.3364 90.0972 29.4324C90.1938 29.5284 90.325 29.5825 90.462 29.5825H94.4017L94.4033 29.5825C95.4943 29.589 96.5385 30.0242 97.3078 30.7933C98.0772 31.5624 98.5091 32.603 98.5091 33.6877V37.2479L98.5091 37.2517C98.494 38.3263 98.0552 39.352 97.2873 40.1083C96.5193 40.8645 95.4836 41.291 94.4027 41.2963ZM80.085 40.7474C79.1399 40.7428 78.235 40.3664 77.5684 39.7006L80.085 40.7474ZM77.5684 39.7006C76.9018 39.0348 76.5275 38.1338 76.5276 37.1946L77.5684 39.7006ZM76.5276 37.1946V34.8976V37.1946ZM76.5276 34.8976V34.3488V34.8976ZM76.5276 34.3488H77.0792H76.5276ZM77.0792 34.3488H79.1775H77.0792ZM79.1775 34.3488H79.7292H79.1775ZM79.7292 34.3488V34.8976V34.3488ZM79.7292 34.8976V35.7629V34.8976ZM79.7292 35.7629C79.7292 36.2316 79.9166 36.6812 80.2502 37.0127L79.7292 35.7629ZM80.2502 37.0127C80.5838 37.3442 81.0362 37.5304 81.5079 37.5304L80.2502 37.0127ZM81.5079 37.5304H92.9557H81.5079ZM92.9557 37.5304C93.4274 37.5304 93.8799 37.3442 94.2134 37.0127L92.9557 37.5304ZM94.2134 37.0127C94.547 36.6812 94.7344 36.2316 94.7344 35.7629L94.2134 37.0127ZM94.7344 35.7629V35.0558V35.7629ZM94.7344 35.0558C94.7344 34.587 94.547 34.1374 94.2134 33.8059L94.7344 35.0558ZM94.2134 33.8059C93.8799 33.4745 93.4274 33.2882 92.9557 33.2882L94.2134 33.8059ZM92.9557 33.2882H89.7362H92.9557ZM89.7362 33.2882C88.7877 33.2882 87.878 32.914 87.2069 32.2478L89.7362 33.2882ZM87.2069 32.2478C86.5359 31.5817 86.1584 30.678 86.1575 29.7354L87.2069 32.2478ZM86.1575 29.7354V28.3213V29.7354ZM86.1575 28.3213C86.1631 27.3818 86.5427 26.4827 87.2132 25.8203L86.1575 28.3213ZM87.2132 25.8203C87.8837 25.1579 88.7908 24.7862 89.7362 24.7862L87.2132 25.8203ZM89.7362 24.7862H93.6707H89.7362ZM93.6707 24.7862C93.9538 24.7862 94.2253 24.6744 94.4254 24.4755L93.6707 24.7862ZM94.4254 24.4755C94.6255 24.2766 94.738 24.0069 94.738 23.7256L94.4254 24.4755ZM94.738 23.7256C94.738 23.4443 94.6255 23.1746 94.4254 22.9757L94.738 23.7256ZM94.4254 22.9757C94.2253 22.7768 93.9538 22.6651 93.6707 22.6651L94.4254 22.9757ZM93.6707 22.6651H77.0792H93.6707ZM77.0792 22.6651H76.5276H77.0792ZM76.5276 22.6651V22.1162V22.6651ZM76.5276 22.1162V20.0323V22.1162ZM76.5276 20.0323V19.4834V20.0323ZM76.5276 19.4834H77.0792H76.5276Z" fill="white"/>
</svg>
