<svg width="142" height="59" viewBox="0 0 142 59" fill="none" xmlns="http://www.w3.org/2000/svg">
<path fill-rule="evenodd" clip-rule="evenodd" d="M109.386 14.1999C108.573 14.5944 108.077 15.382 108.072 16.2862C108.057 18.6947 111.343 19.5378 112.514 17.4261C113.188 16.2108 112.655 14.6697 111.38 14.148C110.85 13.9311 109.888 13.9561 109.386 14.1999ZM117.719 14.0891C117.051 14.2885 116.452 14.7855 116.102 15.4305C115.929 15.7499 115.921 16.1983 115.921 25.9201V36.076L116.204 36.577C116.845 37.7126 118.164 38.1505 119.323 37.6129C119.907 37.342 120.265 36.986 120.53 36.4098C120.719 36.0011 120.729 35.7975 120.731 32.1424L120.733 28.3041L125.569 28.3032L130.405 28.3022L130.892 28.0799C132.901 27.1621 132.694 24.2929 130.574 23.667C130.225 23.5639 129.133 23.5361 125.432 23.5361H120.733V21.1521V18.7681L127.076 18.7671L133.418 18.7662L133.905 18.5439C134.435 18.3017 134.97 17.7703 135.18 17.2762C135.254 17.1036 135.314 16.7031 135.314 16.3861C135.314 15.6636 135.043 15.0678 134.513 14.6225C133.744 13.9771 134.065 13.9992 125.6 14.0083C121.399 14.0128 117.853 14.0492 117.719 14.0891ZM138.434 14.2543C137.199 14.8906 136.796 16.3946 137.548 17.559C138.111 18.4296 139.182 18.8321 140.177 18.5474C142.167 17.9781 142.557 15.3952 140.813 14.3375C140.427 14.1034 140.211 14.0439 139.649 14.0169C139.042 13.9878 138.896 14.0165 138.434 14.2543ZM101.098 14.3535C100.443 14.6914 99.9837 15.259 99.8419 15.9079C99.6936 16.5865 99.6936 35.5398 99.8419 36.2185C100.302 38.3219 103.249 38.6824 104.282 36.7615L104.548 36.2667L104.577 26.4923C104.593 21.1163 104.58 16.4972 104.547 16.2275C104.463 15.5333 103.987 14.7949 103.393 14.435C103.019 14.209 102.781 14.1406 102.275 14.1135C101.715 14.0834 101.562 14.1146 101.098 14.3535ZM6.2703 14.3543C3.35629 14.7496 0.90879 16.907 0.183813 19.7194C0.0113664 20.3884 -0.0142965 20.7087 0.0238091 21.7163C0.101089 23.7555 0.672381 25.0476 2.13925 26.5003C2.82631 27.1807 3.12144 27.3945 3.88899 27.7672C5.48709 28.5433 5.3023 28.5207 10.5474 28.5827C15.0996 28.6366 15.2231 28.643 15.6089 28.8456C16.5114 29.3194 17.1087 30.3982 16.9609 31.2877C16.8155 32.1624 16.1727 32.9453 15.368 33.2275C15.0978 33.3222 13.5685 33.3508 8.59668 33.354C1.47201 33.3587 1.54939 33.3525 0.806625 33.9762C0.586449 34.1611 0.314947 34.4974 0.203352 34.7236C-0.0594009 35.2562 -0.0689273 36.2031 0.182939 36.7472C0.407683 37.2323 1.13499 37.8674 1.63416 38.0141C1.91071 38.0954 3.85896 38.1261 8.71177 38.1256C14.9782 38.1249 15.4577 38.1132 16.1855 37.9418C17.6952 37.5865 18.7796 36.966 19.8599 35.8395C20.6882 34.9757 21.2656 33.9728 21.5934 32.8283C21.8637 31.8844 21.8876 30.3038 21.6463 29.3312C21.1185 27.2042 19.589 25.3914 17.5611 24.4893C16.2192 23.8925 16.2102 23.8915 11.1793 23.8294C7.89143 23.7887 6.48513 23.739 6.29538 23.6568C5.84015 23.4597 5.17126 22.7803 5.00047 22.3416C4.75531 21.7118 4.83687 20.7212 5.17525 20.2195C5.48631 19.7584 5.98752 19.3657 6.48882 19.1903C6.77753 19.0892 8.08867 19.0612 12.7832 19.0563C18.5336 19.0502 18.7261 19.0441 19.1504 18.8557C19.7378 18.5949 20.1007 18.2445 20.3768 17.6715C20.9989 16.3806 20.301 14.8324 18.9139 14.4264C18.5123 14.309 17.4723 14.2885 12.4982 14.3005C9.23329 14.3083 6.43069 14.3325 6.2703 14.3543ZM87.2931 18.8232C87.1595 18.8466 86.7877 18.9104 86.4669 18.9649C84.5317 19.2941 82.7805 20.2287 81.3634 21.6884C80.0542 23.037 79.3191 24.234 78.8191 25.8312L78.5972 26.54L78.5674 34.8363C78.5335 44.2329 78.4847 43.6157 79.3192 44.3517C80.2979 45.2149 81.5526 45.2162 82.529 44.3551C83.3411 43.6388 83.3484 43.6003 83.381 39.8904C83.3967 38.1072 83.4293 36.6611 83.4534 36.677C83.4776 36.6928 83.7719 36.8275 84.1072 36.9763C85.574 37.627 87.0229 37.8925 88.6908 37.8162C90.0263 37.7551 91.1295 37.4864 92.3336 36.9289C98.3928 34.1235 99.8481 26.4711 95.2218 21.7407C93.4399 19.9186 91.1506 18.9074 88.6054 18.8182C88.0173 18.7976 87.4268 18.7999 87.2931 18.8232ZM53.9833 19.1887C52.448 19.4767 51.5101 19.9105 50.1523 20.9606C48.7737 22.0268 47.8205 23.2953 47.3376 24.7062C46.8954 25.998 46.8391 26.8604 46.8726 31.8325L46.9032 36.3621L47.1862 36.8631C47.8276 37.9987 49.1463 38.4366 50.3055 37.899C50.8896 37.6281 51.2469 37.2721 51.5127 36.6958C51.7031 36.2835 51.7108 36.088 51.7129 31.6856C51.7152 26.6331 51.7385 26.3944 52.3142 25.5143C53.0312 24.4181 54.0491 23.8791 55.4089 23.8755C56.1363 23.8736 56.3132 23.9094 56.8866 24.1744C57.6859 24.5437 58.3525 25.1794 58.6975 25.9014L58.957 26.4446L59.0056 31.3557C59.0525 36.0861 59.0617 36.2825 59.2577 36.6958C60.0099 38.2823 62.1145 38.6064 63.2713 37.3139C63.8786 36.6355 63.866 36.7505 63.866 31.8531C63.866 29.0471 63.9053 27.1752 63.9717 26.8198C64.1116 26.0708 64.5778 25.2304 65.1069 24.7735C67.3041 22.8762 70.6832 24.0523 71.1504 26.877C71.2108 27.2419 71.2535 29.3033 71.2552 31.9278C71.2585 36.9652 71.2354 36.8048 72.0604 37.5172C73.025 38.3501 74.2763 38.3377 75.2423 37.4857C76.0857 36.7418 76.0659 36.8919 76.0637 31.2603C76.0618 26.5031 76.055 26.3229 75.8456 25.51C75.054 22.4361 72.7596 20.1465 69.6499 19.3271C68.6303 19.0584 66.6694 19.0325 65.6786 19.2747C64.2817 19.616 62.9893 20.2548 61.9743 21.1054L61.4555 21.5402L61.0057 21.1583C59.9644 20.2742 58.7824 19.661 57.4989 19.3388C56.4902 19.0857 54.8955 19.0177 53.9833 19.1887ZM26.4896 19.2387C25.7985 19.4038 25.2162 19.8631 24.8515 20.531C24.6463 20.907 24.6426 20.9921 24.6426 25.3956C24.6426 29.7149 24.6505 29.9077 24.8587 30.7088C25.593 33.5327 27.3824 35.7205 29.989 36.9812C31.3241 37.6269 32.2298 37.8484 33.7802 37.9085C34.7275 37.9452 35.2629 37.9173 35.9187 37.7973C36.7251 37.6495 38.3794 37.0868 38.6649 36.8631C38.8877 36.6884 38.799 37.0268 38.4348 37.7411C37.9734 38.6458 37.2553 39.3449 36.3231 39.7968C34.5235 40.6693 32.5505 40.4104 30.9334 39.0896C30.1735 38.4689 29.7506 38.2894 29.0577 38.2935C27.3191 38.3038 26.1963 40.1488 27.0046 41.6668C27.324 42.2666 28.2619 43.0844 29.3501 43.7118C31.9987 45.2391 35.407 45.4041 38.1661 44.1386C39.6184 43.4724 40.8989 42.4691 41.8228 41.2731C42.4364 40.4788 43.2001 38.9596 43.4765 37.9832C43.6906 37.2266 43.6926 37.1532 43.7213 29.1395L43.7503 21.0588L43.5404 20.5802C42.999 19.3455 41.4771 18.8344 40.2664 19.4808C39.9866 19.6303 39.6468 19.8951 39.5112 20.0693C38.9937 20.735 38.9808 20.8584 38.9808 25.1492C38.9808 28.4064 38.9539 29.2247 38.8319 29.6907C38.2714 31.8306 36.3884 33.2629 34.136 33.2629C32.1371 33.2629 30.2766 31.9176 29.6187 29.9966C29.4271 29.4373 29.4113 29.1381 29.3616 25.1096C29.3129 21.1633 29.2939 20.7894 29.1258 20.4576C28.8749 19.9621 28.2464 19.4593 27.6669 19.2904C27.1469 19.139 26.9446 19.1301 26.4896 19.2387ZM107.923 28.8048L107.95 36.2667L108.212 36.7048C109.068 38.1331 111.073 38.3453 112.167 37.1232C112.771 36.448 112.743 36.8124 112.819 28.7511C112.897 20.5547 112.932 21.0124 112.275 21.6768C111.807 22.1504 111.021 22.4225 110.283 22.3665C109.577 22.3129 108.799 22.0003 108.429 21.6219C107.869 21.0485 107.894 20.6899 107.923 28.8048ZM137.259 28.7094L137.26 36.076L137.489 36.5581C137.932 37.4926 138.883 38.0218 139.904 37.9032C140.968 37.7794 141.739 36.9944 141.936 35.8322C142.008 35.4084 142.019 33.0731 141.972 28.3041C141.934 24.5016 141.886 21.372 141.864 21.3493C141.842 21.3267 141.682 21.4401 141.509 21.6014C140.938 22.1344 140.404 22.3396 139.591 22.3399C138.746 22.3402 138.156 22.1236 137.695 21.6443C137.535 21.4784 137.372 21.3428 137.331 21.3428C137.291 21.3428 137.258 24.6577 137.259 28.7094ZM89.3255 23.683C91.7701 24.2482 93.4067 26.5935 93.033 28.9955C92.7414 30.87 91.3035 32.4593 89.4769 32.926C86.9664 33.5675 84.3545 32.1588 83.5978 29.7552C83.3571 28.9907 83.3395 27.699 83.5597 26.9626C84.2772 24.5636 86.837 23.1076 89.3255 23.683Z" fill="white"/>
</svg>
