<svg width="109" height="59" viewBox="0 0 109 59" fill="none" xmlns="http://www.w3.org/2000/svg">
<g clip-path="url(#clip0_445_6495)">
<path d="M54.0466 19.0349H47.2863V37.4661H45.6262V19.0349H38.8831V17.6211H54.0466V19.0349Z" fill="white"/>
<path d="M60.2934 37.76C59.044 37.76 57.9145 37.4497 56.9218 36.829C55.9292 36.2083 55.1248 35.3462 54.5771 34.2428C54.0124 33.1393 53.7385 31.8979 53.7385 30.5358V29.9496C53.7385 28.5358 54.0124 27.2599 54.56 26.122C55.1077 24.9841 55.8607 24.0875 56.8363 23.4496C57.8118 22.8116 58.8729 22.4668 60.0025 22.4668C61.7824 22.4668 63.1858 23.0703 64.2298 24.2944C65.2737 25.5185 65.7872 27.191 65.7872 29.3117V30.2255H55.3302V30.5358C55.3302 32.2083 55.8094 33.6048 56.7507 34.7083C57.7091 35.829 58.9071 36.3807 60.3447 36.3807C61.2176 36.3807 61.9706 36.2255 62.6381 35.8979C63.3056 35.5876 63.9046 35.0703 64.4522 34.3634L65.462 35.1393C64.2982 36.8807 62.5696 37.76 60.2934 37.76ZM60.0025 23.8461C58.7873 23.8461 57.7604 24.2944 56.9218 25.191C56.0832 26.0875 55.5869 27.2944 55.3986 28.8117H64.1784V28.6393C64.1271 27.2255 63.7334 26.0703 62.9804 25.1737C62.2274 24.2772 61.2347 23.8461 60.0025 23.8461Z" fill="white"/>
<path d="M70.5793 36.105H80.095V37.4843H68.5769V36.2774L77.4594 24.1394H68.8507V22.7256H79.496V23.9497L70.5793 36.105Z" fill="white"/>
<path d="M82.4226 29.8803C82.4226 28.4665 82.6964 27.1906 83.2441 26.0527C83.7917 24.9148 84.5619 24.0354 85.5545 23.3975C86.5472 22.7596 87.6768 22.4492 88.9432 22.4492C90.8943 22.4492 92.4688 23.1389 93.684 24.5182C94.8991 25.8975 95.4981 27.7251 95.4981 30.001V30.3458C95.4981 31.7769 95.2243 33.0528 94.6766 34.1907C94.1289 35.3286 93.3588 36.208 92.3661 36.8286C91.3735 37.4493 90.2439 37.7597 88.9775 37.7597C87.0435 37.7597 85.4519 37.07 84.2367 35.6907C83.0216 34.3114 82.4226 32.4838 82.4226 30.2079V29.8803ZM84.0485 30.3286C84.0485 32.0872 84.5106 33.5355 85.4005 34.6735C86.3076 35.8114 87.4885 36.3631 88.9603 36.3631C90.4151 36.3631 91.6131 35.7942 92.5202 34.6735C93.4272 33.5355 93.8722 32.0527 93.8722 30.1907V29.8803C93.8722 28.7596 93.6669 27.7251 93.2561 26.7768C92.8454 25.8458 92.2635 25.1217 91.5104 24.6044C90.7574 24.0872 89.9016 23.8285 88.9432 23.8285C87.5056 23.8285 86.3247 24.3975 85.4005 25.5355C84.4934 26.6734 84.0313 28.1734 84.0313 30.0182L84.0485 30.3286Z" fill="white"/>
<path d="M107.615 33.7255C107.615 32.9152 107.29 32.26 106.64 31.7772C105.989 31.2945 105.031 30.8979 103.713 30.622C102.395 30.3462 101.403 30.0186 100.684 29.6738C99.9651 29.3117 99.4345 28.8806 99.0923 28.3634C98.75 27.8462 98.5617 27.2255 98.5617 26.4841C98.5617 25.3116 99.0409 24.3634 100.016 23.6047C100.975 22.8461 102.224 22.4668 103.73 22.4668C105.356 22.4668 106.674 22.8806 107.667 23.6909C108.659 24.5013 109.156 25.5703 109.156 26.8806H107.53C107.53 26.0186 107.17 25.2944 106.452 24.7254C105.733 24.1565 104.826 23.8634 103.73 23.8634C102.669 23.8634 101.813 24.1047 101.163 24.5703C100.513 25.053 100.188 25.6737 100.188 26.4323C100.188 27.1737 100.461 27.7427 100.992 28.1393C101.523 28.5358 102.515 28.9151 103.936 29.26C105.356 29.6048 106.417 29.9496 107.136 30.3289C107.838 30.7082 108.368 31.1738 108.711 31.7083C109.053 32.2427 109.224 32.8979 109.224 33.6565C109.224 34.8979 108.728 35.8979 107.735 36.6393C106.742 37.3807 105.442 37.76 103.833 37.76C102.122 37.76 100.735 37.3462 99.6913 36.5186C98.6302 35.691 98.0996 34.6393 98.0996 33.3634H99.7255C99.794 34.3117 100.188 35.0531 100.924 35.5876C101.659 36.1221 102.635 36.3807 103.85 36.3807C104.98 36.3807 105.887 36.1221 106.588 35.6393C107.273 35.1221 107.615 34.4841 107.615 33.7255Z" fill="white"/>
<path d="M26.9201 38.5873C26.5264 31.57 17.7638 28.3804 16.9252 28.0528C16.8909 28.0355 16.8909 28.0011 16.9081 27.9666L25.9445 18.8286V17.8458C25.9445 17.6906 25.8076 17.5527 25.6536 17.5527H9.00112V12.0526V10.3975L2.85699 11.6906V12.6216H3.19928C3.19928 12.6216 4.70536 12.6216 4.70536 14.1389V17.5354H-0.0524871C-0.13806 17.5354 -0.223633 17.6217 -0.223633 17.7079V19.8631H4.72248C4.72248 19.8631 4.72248 22.1562 4.72248 24.8286V31.57C4.72248 35.2425 7.06717 37.7942 11.1747 37.4494C12.0475 37.3804 12.8519 37.0356 13.5365 36.5873C13.8445 36.3804 14.0328 36.0528 14.0328 35.6735V34.5183C12.6979 35.4149 11.5683 35.3632 11.5683 35.3632C8.96689 35.3632 9.01823 32.0356 9.01823 32.0356V19.8631H20.9984L12.3727 28.6217C12.3556 29.7769 12.3385 30.6735 12.3385 30.6907C12.3385 30.7252 12.3556 30.7425 12.3898 30.7425C20.2967 32.0873 22.4361 37.2425 22.4361 38.7425C22.4361 38.7425 23.2918 46.0357 16.0523 46.5357C16.0523 46.5357 11.3116 46.7426 10.473 44.8288C10.4387 44.7598 10.473 44.6908 10.5414 44.6564C11.3287 44.2943 11.8593 43.5874 11.8593 42.6391C11.8593 41.2253 11.0035 40.0701 9.20649 40.0701C7.75176 40.0701 6.55374 41.2253 6.55374 42.6391C6.55374 42.6391 5.86915 48.7771 16.0352 48.6047C27.6389 48.3978 26.9201 38.5873 26.9201 38.5873Z" fill="white"/>
</g>
<defs>
<clipPath id="clip0_445_6495">
<rect width="109" height="59" fill="white"/>
</clipPath>
</defs>
</svg>
