<svg width="124" height="60" viewBox="0 0 124 60" fill="none" xmlns="http://www.w3.org/2000/svg">
<path d="M0 34.184C0 42.08 4.982 47.015 13.254 47.015C21.526 47.015 26.508 42.08 26.508 34.184V12.47H21.573V33.949C21.573 39.636 18.8 42.456 13.254 42.456C7.708 42.456 4.935 39.636 4.935 33.949V12.47H0V34.184Z" fill="white"/>
<path d="M38.2855 46.545V32.962C38.2855 29.014 40.4475 25.865 44.7245 25.865C48.1085 25.865 49.8005 27.886 49.8005 31.881V46.545H54.5475V31.176C54.5475 25.113 51.5865 21.776 46.1345 21.776C42.7505 21.776 39.5545 23.609 38.2855 26.241L37.8155 22.246H33.5385V46.545H38.2855Z" fill="white"/>
<path d="M67.3492 16.794V12.047H61.4272V16.794H67.3492ZM66.7852 46.545V22.246H62.0382V46.545H66.7852Z" fill="white"/>
<path d="M83.3343 46.968C84.2273 46.968 85.3553 46.827 86.7183 46.545V42.738C85.8253 42.879 85.1203 42.926 84.5563 42.926C81.9243 42.926 80.8903 41.704 80.8903 38.508V26.241H86.7183V22.246H80.8903V15.478H76.1903V19.332C76.1903 21.353 75.4853 22.246 73.2293 22.246H71.1613V26.241H76.1903V39.213C76.1903 44.383 78.5873 46.968 83.3343 46.968Z" fill="white"/>
<path d="M118.14 27.604C120.678 26.1 121.947 23.797 121.947 20.695C121.947 15.478 118.046 12 111.842 12C108.74 12 106.249 12.799 104.416 14.397C102.583 15.995 101.69 18.11 101.69 20.695C101.69 23.844 102.959 26.147 105.544 27.604C102.113 28.967 99.9036 32.445 99.9036 36.628C99.9036 39.777 100.985 42.268 103.147 44.195C105.356 46.122 108.223 47.062 111.842 47.062C115.414 47.062 118.281 46.122 120.443 44.195C122.652 42.268 123.733 39.777 123.733 36.628C123.733 32.445 121.571 28.92 118.14 27.604ZM111.795 16.089C114.991 16.089 117.153 18.11 117.153 20.977C117.153 23.938 114.991 26.053 111.842 26.053C108.693 26.053 106.531 23.938 106.531 20.977C106.531 18.11 108.646 16.089 111.795 16.089ZM111.842 42.832C107.659 42.832 104.839 40.247 104.839 36.44C104.839 32.539 107.706 29.86 111.842 29.86C115.978 29.86 118.845 32.539 118.845 36.44C118.845 40.247 115.978 42.832 111.842 42.832Z" fill="white"/>
</svg>
